#!OML:ASF G:\JayActor3\Patient Classification 1\Patient 1\Session 2\male.ASF
:FULLY-SPECIFIED
:DEGREES
2395
root 41.7891 16.8146 -6.92583 1632.33 -100.64 -555.461
lowerback -1.94348 -0.544485 -1.09875
upperback -3.073 -0.783109 -1.17708
thorax -2.06363 -0.400991 -0.591528
lowerneck 0.432104 -15.9933 -15.9415
upperneck 5.05236 -22.7819 16.3184
head 5.15187 -11.3138 5.80696
rclavicle -2.98177e-015 -1.82882e-014
rhumerus -60.8871 33.6436 -114.556
rradius 103.568
rwrist -18.6182
rhand 5.56735 6.8932
rfingers 7.12502
rthumb 30.911 -20.5252
lclavicle -2.98177e-015 -1.82882e-014
lhumerus -28.1675 -33.7243 93.9382
lradius 143.57
lwrist 37.7215
lhand -3.98444 5.70339
lfingers 7.12502
lthumb 21.7689 34.4992
rfemur -7.79562 -13.3901 29.6186
rtibia 26.3627
rfoot -18.2667 -4.43157
rtoes 25.3736
lfemur 1.48385 6.31648 -11.556
ltibia 54.2557
lfoot 14.5853 4.54123
ltoes -10.5744
2396
root 41.7351 16.8082 -6.93211 1633.43 -100.519 -556.593
lowerback -1.84654 -0.469387 -0.880309
upperback -3.03237 -0.68265 -1.14453
thorax -2.07779 -0.354243 -0.679629
lowerneck 0.183755 -15.8191 -15.7893
upperneck 5.27653 -22.5293 16.2391
head 5.19368 -11.1753 5.77575
rclavicle -5.76476e-015 -8.74653e-015
rhumerus -60.8249 33.5517 -114.484
rradius 103.555
rwrist -18.6988
rhand 5.72919 6.86316
rfingers 7.12502
rthumb 31.0652 -20.5259
lclavicle -5.76476e-015 -8.74653e-015
lhumerus -28.2433 -33.8568 94.0584
lradius 143.547
lwrist 37.7217
lhand -3.96508 5.70374
lfingers 7.12502
lthumb 21.7875 34.4974
rfemur -7.48226 -13.4344 29.8108
rtibia 26.2092
rfoot -18.3427 -4.29722
rtoes 25.1646
lfemur 0.412401 6.14853 -11.4168
ltibia 55.4057
lfoot 13.3271 4.58544
ltoes -11.2569
2397
root 41.6818 16.8015 -6.9379 1634.52 -100.391 -557.712
lowerback -1.75139 -0.390905 -0.664108
upperback -2.99087 -0.577361 -1.11604
thorax -2.08948 -0.30509 -0.770921
lowerneck -0.0935126 -15.6359 -15.6009
upperneck 5.50763 -22.2576 16.126
head 5.23169 -11.026 5.7303
rclavicle 2.3059e-014 4.77083e-015
rhumerus -60.7656 33.4653 -114.423
rradius 103.53
rwrist -18.7316
rhand 5.85542 6.84178
rfingers 7.12502
rthumb 31.1855 -20.5242
lclavicle 2.3059e-014 4.77083e-015
lhumerus -28.3196 -33.9876 94.172
lradius 143.521
lwrist 37.7225
lhand -3.95225 5.69843
lfingers 7.12502
lthumb 21.7998 34.4907
rfemur -7.175 -13.4716 29.9906
rtibia 26.0658
rfoot -18.4226 -4.16917
rtoes 24.9347
lfemur -0.656575 5.97077 -11.3016
ltibia 56.4748
lfoot 12.0043 4.70428
ltoes -11.9525
2398
root 41.629 16.7946 -6.94324 1635.6 -100.257 -558.825
lowerback -1.66125 -0.308144 -0.449121
upperback -2.94486 -0.465954 -1.09273
thorax -2.09308 -0.252882 -0.867156
lowerneck -0.395789 -15.4367 -15.4016
upperneck 5.74327 -21.9624 16.0154
head 5.27153 -10.8637 5.68532
rclavicle -1.82882e-014 6.36111e-015
rhumerus -60.6964 33.379 -114.363
rradius 103.498
rwrist -18.7395
rhand 5.97705 6.82227
rfingers 7.12502
rthumb 31.3015 -20.5213
lclavicle -1.82882e-014 6.36111e-015
lhumerus -28.3865 -34.1187 94.2706
lradius 143.491
lwrist 37.7227
lhand -3.94858 5.67987
lfingers 7.12502
lthumb 21.8033 34.4717
rfemur -6.87489 -13.5021 30.1582
rtibia 25.9386
rfoot -18.5124 -4.04662
rtoes 24.6897
lfemur -1.72109 5.78927 -11.2085
ltibia 57.4656
lfoot 10.5964 4.88009
ltoes -12.8034
2399
root 41.5772 16.7867 -6.94824 1636.69 -100.118 -559.941
lowerback -1.57292 -0.22155 -0.234762
upperback -2.89625 -0.349151 -1.07418
thorax -2.09228 -0.197967 -0.968193
lowerneck -0.721471 -15.223 -15.1882
upperneck 5.97925 -21.6458 15.9077
head 5.31183 -10.6895 5.64045
rclavicle -2.24627e-014 -1.03368e-014
rhumerus -60.6161 33.289 -114.3
rradius 103.459
rwrist -18.7196
rhand 6.10119 6.80483
rfingers 7.12502
rthumb 31.4197 -20.5158
lclavicle -2.24627e-014 -1.03368e-014
lhumerus -28.444 -34.2511 94.3526
lradius 143.461
lwrist 37.7182
lhand -3.94817 5.6693
lfingers 7.12502
lthumb 21.8037 34.4611
rfemur -6.59224 -13.5201 30.3195
rtibia 25.8376
rfoot -18.6195 -3.93701
rtoes 24.4371
lfemur -2.78954 5.58954 -11.1423
ltibia 58.3846
lfoot 9.098 5.11281
ltoes -13.7643
